<?xml version="1.0" encoding="UTF-8" standalone="no"?>
<!-- Created with Inkscape (http://www.inkscape.org/) -->

<svg
   xmlns:dc="http://purl.org/dc/elements/1.1/"
   xmlns:cc="http://creativecommons.org/ns#"
   xmlns:rdf="http://www.w3.org/1999/02/22-rdf-syntax-ns#"
   xmlns:svg="http://www.w3.org/2000/svg"
   xmlns="http://www.w3.org/2000/svg"
   xmlns:sodipodi="http://sodipodi.sourceforge.net/DTD/sodipodi-0.dtd"
   xmlns:inkscape="http://www.inkscape.org/namespaces/inkscape"
   width="210mm"
   height="210mm"
   viewBox="0 0 210 210"
   version="1.1"
   id="svg188"
   inkscape:version="0.92.3 (2405546, 2018-03-11)"
   sodipodi:docname="brazil.svg">
  <defs
     id="defs182">
    <linearGradient
       id="SVGID_1_"
       gradientUnits="userSpaceOnUse"
       x1="256"
       x2="256"
       y1="436"
       y2="76">
      <stop
         offset="0"
         stop-color="#5558ff"
         id="stop2" />
      <stop
         offset="1"
         stop-color="#00c0ff"
         id="stop4" />
    </linearGradient>
    <linearGradient
       id="SVGID_2_"
       gradientUnits="userSpaceOnUse"
       x1="256"
       x2="256"
       y1="376"
       y2="136">
      <stop
         offset="0"
         stop-color="#addcff"
         id="stop7" />
      <stop
         offset=".5028"
         stop-color="#eaf6ff"
         id="stop9" />
      <stop
         offset="1"
         stop-color="#eaf6ff"
         id="stop11" />
    </linearGradient>
  </defs>
  <sodipodi:namedview
     id="base"
     pagecolor="#ffffff"
     bordercolor="#666666"
     borderopacity="1.0"
     inkscape:pageopacity="0.0"
     inkscape:pageshadow="2"
     inkscape:zoom="0.35"
     inkscape:cx="119.62208"
     inkscape:cy="525.28"
     inkscape:document-units="mm"
     inkscape:current-layer="layer1"
     showgrid="false"
     inkscape:window-width="1366"
     inkscape:window-height="713"
     inkscape:window-x="0"
     inkscape:window-y="0"
     inkscape:window-maximized="1" />
  <metadata
     id="metadata185">
    <rdf:RDF>
      <cc:Work
         rdf:about="">
        <dc:format>image/svg+xml</dc:format>
        <dc:type
           rdf:resource="http://purl.org/dc/dcmitype/StillImage" />
        <dc:title></dc:title>
      </cc:Work>
    </rdf:RDF>
  </metadata>
  <g
     inkscape:label="Camada 1"
     inkscape:groupmode="layer"
     id="layer1"
     transform="translate(0,-87)">
    <g
       id="g5591">
      <text
         id="text151"
         class="fil0 fnt6"
         y="214.1301"
         x="1.4788206"
         style="font-size:14.17131996px;clip-rule:evenodd;fill:#808080;fill-opacity:1;fill-rule:evenodd;stroke-width:1.18094325;image-rendering:optimizeQuality;shape-rendering:geometricPrecision;text-rendering:geometricPrecision;">ENTREGAMOS</text>
      <text
         id="text153"
         class="fil0 fnt6"
         y="231.09129"
         x="1.2298888"
         style="font-size:14.17131996px;clip-rule:evenodd;fill:#808080;fill-opacity:1;fill-rule:evenodd;stroke-width:1.18094325;image-rendering:optimizeQuality;shape-rendering:geometricPrecision;text-rendering:geometricPrecision;">EM TODO O</text>
      <text
         id="text155"
         class="fil0 fnt7"
         y="245.37187"
         x="1.0242785"
         style="font-size:14.17131996px;clip-rule:evenodd;fill:#808080;fill-opacity:1;fill-rule:evenodd;stroke-width:1.18094325;image-rendering:optimizeQuality;shape-rendering:geometricPrecision;text-rendering:geometricPrecision;">BRASIL</text>
      <path
         id="path157"
         d="m 127.2683,274.36828 c 0.80342,-0.38891 2.35073,-1.15496 3.13199,-2.10852 0.78127,-0.95358 0.79718,-2.09469 1.06292,-2.72026 0.26573,-0.62556 0.78126,-0.7349 2.08707,-1.82894 1.3051,-1.09406 3.39979,-3.17351 4.99415,-5.08827 1.59436,-1.91477 2.68842,-3.66553 3.82952,-5.10419 1.1411,-1.43797 2.32927,-2.56386 3.0012,-3.53266 0.67193,-0.96949 0.82831,-1.7819 0.93765,-3.75201 0.10933,-1.96944 0.17231,-5.09588 0.8131,-7.34695 0.64079,-2.25107 1.8601,-3.62677 3.01712,-4.86129 1.15702,-1.23522 2.25107,-2.32927 3.07939,-2.89188 0.82833,-0.56259 1.39161,-0.59373 2.45452,-0.81308 1.06291,-0.21868 2.62614,-0.62558 3.79839,-1.03178 1.17224,-0.40621 1.9542,-0.8131 2.90778,-1.12588 0.95356,-0.31279 2.07876,-0.53145 3.64199,-0.60965 1.56322,-0.0781 3.56448,-0.0159 5.37751,-0.50031 1.81305,-0.48441 3.43924,-1.51619 4.84607,-2.32927 1.40684,-0.8131 2.59499,-1.40685 4.26756,-4.42395 1.67256,-3.01713 3.82953,-8.45692 5.18999,-12.36463 1.35978,-3.90773 1.92237,-6.28405 2.3445,-9.06658 0.42211,-2.78252 0.70376,-5.97126 0.92243,-8.23824 0.21868,-2.2663 0.37506,-3.61086 0.53146,-4.43918 0.15639,-0.82832 0.31278,-1.1411 0.75012,-1.42275 0.43803,-0.28164 1.15703,-0.53145 2.56385,-1.90715 1.40685,-1.37569 3.50152,-3.87657 5.40867,-5.89307 1.90715,-2.01648 3.62676,-3.54856 4.73673,-5.03359 1.10996,-1.48503 1.61029,-2.92301 2.20402,-4.08002 0.59442,-1.15703 1.28158,-2.03241 1.75075,-2.90778 0.46918,-0.87538 0.719,-1.75076 0.65672,-4.00183 -0.0623,-2.25108 -0.43736,-5.87784 -0.67193,-7.92546 -0.2346,-2.04764 -0.32802,-2.51681 -0.64079,-2.72026 -0.31279,-0.20345 -0.84424,-0.14052 -2.12584,-0.0781 -1.28158,0.0623 -3.31397,0.12521 -4.53327,0.0159 -1.21931,-0.10932 -1.62551,-0.39099 -2.923,-1.61029 -1.2975,-1.21929 -3.4863,-3.37626 -5.95604,-4.84606 -2.46975,-1.46911 -5.22113,-2.25107 -7.75315,-2.89186 -2.53203,-0.64079 -4.84607,-1.14111 -6.0024,-1.39092 -1.15703,-0.24982 -1.15703,-0.24982 -1.53209,-0.31279 -0.37507,-0.0622 -1.12518,-0.18753 -1.75076,-0.37507 -0.62556,-0.18752 -1.12587,-0.43803 -1.61028,-0.42211 -0.4844,0.0159 -0.95358,0.29687 -1.35978,0.75013 -0.4062,0.45325 -0.75013,1.07883 -1.42275,0.57851 -0.67193,-0.50032 -1.67256,-2.12582 -3.75132,-3.79839 -2.07877,-1.67255 -5.23705,-3.39217 -7.51925,-4.28278 -2.28223,-0.8913 -3.68906,-0.95357 -4.6115,-0.53145 -0.92242,0.42212 -1.35976,1.32863 -1.5473,2.07876 -0.18753,0.75013 -0.12521,1.34455 -0.79718,1.75076 -0.67193,0.4062 -2.07877,0.62557 -2.79775,0.10932 -0.71899,-0.51554 -0.75013,-1.76668 -0.42213,-2.7673 0.3287,-1.00063 1.01586,-1.75076 0.39098,-2.48566 -0.62487,-0.7349 -2.56386,-1.45389 -3.86135,-2.07945 -1.29749,-0.62488 -1.9542,-1.15703 -2.21993,-1.98535 -0.26573,-0.82833 -0.14052,-1.9542 -0.0781,-2.61022 0.0623,-0.6567 0.0623,-0.84424 0.18754,-1.37569 0.12521,-0.53145 0.37507,-1.40683 -0.21868,-2.00057 -0.59373,-0.59373 -2.0324,-0.90652 -2.75138,-1.28158 -0.71899,-0.37507 -0.71899,-0.8131 -1.07883,-2.25107 -0.35915,-1.43798 -1.07882,-3.87658 -1.48503,-5.18999 -0.4062,-1.31274 -0.50031,-1.50096 -0.95357,-0.59375 -0.45326,0.90652 -1.26636,2.90779 -1.68017,4.25234 -0.41452,1.34455 -0.42975,2.03241 -0.93006,2.60261 -0.50031,0.5709 -1.48503,1.02415 -2.97006,0.91413 -1.48503,-0.10932 -3.47037,-0.78127 -5.19759,-1.11758 -1.72723,-0.33631 -3.19705,-0.33631 -4.23643,-0.164 -1.03937,0.17231 -1.64903,0.51622 -2.07945,1.00063 -0.42973,0.4844 -0.68024,1.10996 -0.85947,1.50855 -0.17991,0.3986 -0.28925,0.5709 -1.18816,0.64079 -0.8989,0.0706 -2.58738,0.0394 -3.87658,0.28165 -1.28987,0.2422 -2.18048,0.75842 -3.85304,1.10996 -1.67257,0.35155 -4.12708,0.53907 -5.56505,0.28165 -1.43798,-0.25812 -1.8601,-0.96119 -2.03241,-2.50919 -0.17231,-1.54731 -0.0934,-3.93955 -0.17231,-6.33109 -0.0781,-2.39155 -0.31277,-4.78379 -0.60965,-6.12005 -0.29686,-1.33624 -0.656699,-1.61789 -1.164627,-1.67255 -0.507927,-0.0547 -1.164642,0.11698 -1.774294,0.84424 -0.609645,0.72728 -1.172249,2.00886 -2.391553,2.91538 -1.219304,0.90653 -3.095308,1.43798 -5.150543,1.73484 -2.055929,0.29687 -4.291088,0.35984 -5.861919,-0.0781 -1.570845,-0.43804 -2.477361,-1.3757 -2.790149,-1.52448 -0.312773,-0.14877 -0.03119,0.49271 0.35985,0.94596 0.390974,0.45327 0.890593,0.71899 1.109965,1.28158 0.218664,0.56261 0.156387,1.42276 0.116982,2.29813 -0.03871,0.87538 -0.05473,1.76668 0.211049,2.2663 0.26574,0.50031 0.813101,0.60965 1.453892,0.60965 0.64079,0 1.375691,-0.10932 1.75837,0.17993 0.382679,0.28925 0.414512,0.9771 0,1.64142 -0.414498,0.66431 -1.273966,1.3051 -1.914757,1.6255 -0.64079,0.32039 -1.062903,0.32039 -2.438608,0.85184 -1.375691,0.53147 -3.704961,1.59437 -5.870229,2.03241 -2.165254,0.43803 -4.165827,0.24981 -5.392741,-0.42212 -1.226915,-0.67192 -1.680174,-1.82895 -2.454522,-2.40747 -0.773655,-0.57851 -1.867702,-0.57851 -3.626764,-0.57851 -1.758371,0 -4.18175,0 -5.259883,0.30517 -1.078829,0.30518 -0.8131,0.91414 -0.398595,1.53971 0.41451,0.62556 0.977104,1.26635 1.305111,1.79019 0.3287,0.52385 0.422121,0.93005 -0.296867,1.2193 -0.718986,0.28927 -2.251073,0.46158 -2.931306,0.77366 -0.680237,0.31279 -0.50793,0.76605 -0.140477,1.97774 0.367452,1.21169 0.930047,3.18111 1.35978,4.82254 0.42973,1.64142 0.726597,2.95483 0.656707,4.35337 -0.07059,1.39921 -0.507929,2.88424 -0.789573,4.61909 -0.281642,1.73483 -0.406203,3.72019 -2.15696,4.68206 -1.750756,0.96119 -5.127019,0.8989 -7.659734,2.30575 -2.532024,1.40682 -4.220501,4.28277 -5.127022,6.48748 -0.906516,2.20402 -1.031769,3.73609 -0.969488,5.29933 0.06228,1.56323 0.312783,3.15759 1.586753,4.9554 1.273968,1.79782 3.572098,3.79837 4.837764,4.89312 1.266359,1.09406 1.500945,1.28159 2.06354,1.17986 0.562596,-0.10167 1.453892,-0.492 2.212321,-0.78956 0.75843,-0.29688 1.383307,-0.50033 1.844175,-0.47679 0.461567,0.0235 0.758434,0.27334 1.242834,1.26635 0.484398,0.99303 1.15702,2.72786 2.368019,3.62676 1.21169,0.89892 2.962448,0.96119 4.939486,0.50033 1.977735,-0.46088 4.18175,-1.44628 5.924897,-2.78254 1.743143,-1.33624 3.024726,-3.02472 4.181749,-3.86896 1.157028,-0.84424 2.188792,-0.84424 3.126447,-0.42213 0.937669,0.42213 1.781894,1.26637 1.914757,2.17289 0.132863,0.90651 -0.445636,1.876 -0.27334,3.15758 0.17231,1.2816 1.094056,2.87595 2.399855,4.35337 1.305119,1.47741 2.993584,2.83719 5.408668,3.93956 2.415071,1.10235 5.557441,1.9459 7.996049,2.80604 2.438594,0.86017 4.173448,1.73485 5.142936,2.69672 0.969505,0.9612 1.172255,2.00888 1.250445,3.47799 0.0781,1.46912 0.0312,3.36104 0.96119,4.33815 0.93004,0.97709 2.8372,1.03938 3.97069,1.21929 1.13349,0.17993 1.49264,0.47679 2.39916,1.96182 0.90651,1.48503 2.3604,4.15823 2.79013,8.07356 0.42974,3.91602 -0.164,9.07418 -0.38266,11.90376 -0.21868,2.82958 -0.0623,3.3292 0.1252,3.8143 0.18753,0.48439 0.40621,0.95358 1.42274,0.87538 1.01586,-0.0783 2.82958,-0.70307 4.20529,-0.60966 1.37569,0.0942 2.31334,0.90652 3.03234,1.50094 0.71899,0.59444 1.2193,0.96951 1.6255,1.65734 0.40621,0.68786 0.71898,1.68848 0.89129,2.61023 0.17231,0.92244 0.20345,1.76668 0.62558,1.876 0.42211,0.10933 1.23521,-0.51553 1.75075,-0.14052 0.51553,0.37507 0.7349,1.75076 0.78127,3.1576 0.0471,1.40683 -0.0781,2.84481 0.1723,3.62676 0.24981,0.78196 0.87537,0.90653 1.34455,1.76668 0.46917,0.86015 0.78127,2.45452 0.62488,3.45446 -0.15639,1.00063 -0.78127,1.40683 -2.23516,2.40746 -1.45389,1.00063 -3.7361,2.59499 -5.43981,4.31461 -1.70369,1.71962 -2.82956,3.56379 -3.76723,4.9395 -0.93766,1.37569 -1.68779,2.2822 -2.36041,2.79844 -0.67193,0.51554 -1.26635,0.64079 -1.18817,0.78125 0.0783,0.14052 0.82833,0.29688 1.57914,0.31279 0.75013,0.0159 1.50096,-0.10932 2.43861,0.23459 0.93767,0.34392 2.06354,1.15703 3.09531,1.76668 1.03178,0.60965 1.96943,1.01653 2.6732,1.2193 0.70376,0.20345 1.17224,0.20345 1.84417,0.46918 0.67194,0.26572 1.54732,0.79717 1.98535,1.50094 0.43804,0.70376 0.43804,1.57844 0.74252,2.21993 0.30517,0.64079 0.91481,1.04769 1.36808,1.49264 0.45326,0.44565 0.75012,0.93004 0.51208,1.70993 -0.23805,0.77988 -1.0124,1.85455 -1.43244,2.50504 -0.42004,0.65048 -0.48647,0.87745 -0.47264,0.94734 0.0142,0.0706 0.1072,-0.0159 0.18407,-0.0644 0.0761,-0.0485 0.13499,-0.0603 0.93766,-0.4491 z"
         class="fil6"
         style="clip-rule:evenodd;fill:#cccccc;fill-opacity:1;fill-rule:evenodd;stroke-width:0.06919988;image-rendering:optimizeQuality;shape-rendering:geometricPrecision;text-rendering:geometricPrecision"
         inkscape:connector-curvature="0" />
    </g>
  </g>
</svg>
