<?xml version="1.0" encoding="UTF-8" standalone="no"?>
<!-- Created with Inkscape (http://www.inkscape.org/) -->

<svg
   xmlns:dc="http://purl.org/dc/elements/1.1/"
   xmlns:cc="http://creativecommons.org/ns#"
   xmlns:rdf="http://www.w3.org/1999/02/22-rdf-syntax-ns#"
   xmlns:svg="http://www.w3.org/2000/svg"
   xmlns="http://www.w3.org/2000/svg"
   xmlns:sodipodi="http://sodipodi.sourceforge.net/DTD/sodipodi-0.dtd"
   xmlns:inkscape="http://www.inkscape.org/namespaces/inkscape"
   width="210mm"
   height="210mm"
   viewBox="0 0 210 210"
   version="1.1"
   id="svg188"
   inkscape:version="0.92.3 (2405546, 2018-03-11)"
   sodipodi:docname="card.svg">
  <defs
     id="defs182">
    <linearGradient
       id="SVGID_1_"
       gradientUnits="userSpaceOnUse"
       x1="256"
       x2="256"
       y1="436"
       y2="76">
      <stop
         offset="0"
         stop-color="#5558ff"
         id="stop2" />
      <stop
         offset="1"
         stop-color="#00c0ff"
         id="stop4" />
    </linearGradient>
    <linearGradient
       id="SVGID_2_"
       gradientUnits="userSpaceOnUse"
       x1="256"
       x2="256"
       y1="376"
       y2="136">
      <stop
         offset="0"
         stop-color="#addcff"
         id="stop7" />
      <stop
         offset=".5028"
         stop-color="#eaf6ff"
         id="stop9" />
      <stop
         offset="1"
         stop-color="#eaf6ff"
         id="stop11" />
    </linearGradient>
  </defs>
  <sodipodi:namedview
     id="base"
     pagecolor="#ffffff"
     bordercolor="#666666"
     borderopacity="1.0"
     inkscape:pageopacity="0.0"
     inkscape:pageshadow="2"
     inkscape:zoom="0.35"
     inkscape:cx="400"
     inkscape:cy="560"
     inkscape:document-units="mm"
     inkscape:current-layer="layer1"
     showgrid="false"
     inkscape:window-width="1366"
     inkscape:window-height="713"
     inkscape:window-x="0"
     inkscape:window-y="0"
     inkscape:window-maximized="1" />
  <metadata
     id="metadata185">
    <rdf:RDF>
      <cc:Work
         rdf:about="">
        <dc:format>image/svg+xml</dc:format>
        <dc:type
           rdf:resource="http://purl.org/dc/dcmitype/StillImage" />
        <dc:title></dc:title>
      </cc:Work>
    </rdf:RDF>
  </metadata>
  <g
     inkscape:label="Camada 1"
     inkscape:groupmode="layer"
     id="layer1"
     transform="translate(0,-87)">
    <g
       id="g18"
       transform="matrix(0.4063244,0,0,0.4063244,0.9809536,87.980954)"
       style="fill:#cccccc;fill-opacity:1">
      <g
         id="g16"
         style="fill:#cccccc;fill-opacity:1">
        <path
           id="path14"
           d="M 482,196 H 30 C 13.431,196 0,209.431 0,226 v 165 c 0,24.853 20.147,45 45,45 h 422 c 24.853,0 45,-20.147 45,-45 V 226 c 0,-16.569 -13.431,-30 -30,-30 z M 467,76 H 45 C 20.147,76 0,96.147 0,121 v 15 c 0,16.569 13.431,30 30,30 h 452 c 16.569,0 30,-13.431 30,-30 V 121 C 512,96.147 491.853,76 467,76 Z"
           inkscape:connector-curvature="0"
           style="fill:#cccccc;fill-opacity:1" />
      </g>
    </g>
    <g
       id="g24"
       transform="matrix(0.4063244,0,0,0.4063244,0.9809536,87.980954)"
       style="fill:#ffffff">
      <g
         id="g22"
         style="fill:#ffffff">
        <path
           id="path20"
           d="m 0,136 v 90 h 512 v -90 z m 180,120 c -10.576,0 -20.889,2.856 -30,8.188 -9.111,-5.332 -19.424,-8.188 -30,-8.188 -33.076,0 -60,26.909 -60,60 0,33.091 26.924,60 60,60 10.576,0 20.889,-2.856 30,-8.188 9.111,5.332 19.424,8.188 30,8.188 33.076,0 60,-26.909 60,-60 0,-33.091 -26.924,-60 -60,-60 z m 167,60 h -30 c -8.291,0 -15,6.709 -15,15 0,8.291 6.709,15 15,15 h 30 c 8.291,0 15,-6.709 15,-15 0,-8.291 -6.709,-15 -15,-15 z m 90,0 h -30 c -8.291,0 -15,6.709 -15,15 0,8.291 6.709,15 15,15 h 30 c 8.291,0 15,-6.709 15,-15 0,-8.291 -6.709,-15 -15,-15 z"
           inkscape:connector-curvature="0"
           style="fill:#ffffff" />
      </g>
    </g>
  </g>
</svg>
