<?xml version="1.0" encoding="UTF-8" standalone="no"?>
<!-- Created with Inkscape (http://www.inkscape.org/) -->

<svg
   xmlns:dc="http://purl.org/dc/elements/1.1/"
   xmlns:cc="http://creativecommons.org/ns#"
   xmlns:rdf="http://www.w3.org/1999/02/22-rdf-syntax-ns#"
   xmlns:svg="http://www.w3.org/2000/svg"
   xmlns="http://www.w3.org/2000/svg"
   xmlns:sodipodi="http://sodipodi.sourceforge.net/DTD/sodipodi-0.dtd"
   xmlns:inkscape="http://www.inkscape.org/namespaces/inkscape"
   width="210mm"
   height="210mm"
   viewBox="0 0 210 210"
   version="1.1"
   id="svg188"
   inkscape:version="0.92.3 (2405546, 2018-03-11)"
   sodipodi:docname="comments.svg">
  <defs
     id="defs182" />
  <sodipodi:namedview
     id="base"
     pagecolor="#ffffff"
     bordercolor="#666666"
     borderopacity="1.0"
     inkscape:pageopacity="0.0"
     inkscape:pageshadow="2"
     inkscape:zoom="0.35"
     inkscape:cx="400"
     inkscape:cy="560"
     inkscape:document-units="mm"
     inkscape:current-layer="layer1"
     showgrid="false"
     inkscape:window-width="1366"
     inkscape:window-height="713"
     inkscape:window-x="0"
     inkscape:window-y="0"
     inkscape:window-maximized="1" />
  <metadata
     id="metadata185">
    <rdf:RDF>
      <cc:Work
         rdf:about="">
        <dc:format>image/svg+xml</dc:format>
        <dc:type
           rdf:resource="http://purl.org/dc/dcmitype/StillImage" />
        <dc:title></dc:title>
      </cc:Work>
    </rdf:RDF>
  </metadata>
  <g
     inkscape:label="Camada 1"
     inkscape:groupmode="layer"
     id="layer1"
     transform="translate(0,-87)">
    <path
       inkscape:connector-curvature="0"
       style="clip-rule:evenodd;fill-rule:evenodd;stroke-width:0.22879586;image-rendering:optimizeQuality;shape-rendering:geometricPrecision;text-rendering:geometricPrecision;fill:#cccccc;fill-opacity:1"
       class="fil2"
       d="m 17.39846,270.33728 c 1.773165,-7.85228 5.287474,-23.46073 7.044623,-31.26726 1.757155,-7.80422 1.757155,-7.80422 1.757155,-7.80422 0,0 0,0 -3.875803,-4.03139 C 18.448633,223.20302 10.69474,215.14028 6.0021382,207.12096 1.3095325,199.10169 -0.32406891,191.12813 0.44010901,181.6308 1.2042869,172.13352 4.3708199,161.11014 9.5278816,151.55562 14.687227,142.0011 21.839388,133.91544 33.581188,126.35833 c 11.741805,-7.55711 28.073252,-14.58802 45.491478,-18.15265 17.41823,-3.56693 35.920954,-3.66988 56.077864,1.49858 20.15691,5.16852 41.96803,15.60846 55.19929,27.54702 13.23126,11.93857 17.88271,25.37807 19.07928,38.35761 1.19662,12.97963 -1.0616,25.4993 -6.77235,36.3534 -5.71075,10.85409 -14.87631,20.04021 -26.1262,26.90637 -11.24989,6.86617 -24.58412,11.41692 -39.21103,14.20598 -14.62692,2.79131 -30.54654,3.82543 -44.034055,2.68831 -13.489803,-1.13708 -24.549792,-4.4455 -30.079791,-6.09739 -5.529995,-1.65419 -5.529995,-1.65419 -5.529995,-1.65419 0,0 0,0 -7.019457,5.06097 -7.019455,5.06097 -21.05837,15.18515 -28.077822,20.24842 -7.019462,5.06097 -7.019462,5.06097 -7.003442,5.01291 0.01594,-0.0478 0.04805,-0.14627 1.821214,-7.99869 z"
       id="path117" />
  </g>
</svg>
