<?xml version="1.0" encoding="UTF-8" standalone="no"?>
<!-- Created with Inkscape (http://www.inkscape.org/) -->

<svg
   xmlns:dc="http://purl.org/dc/elements/1.1/"
   xmlns:cc="http://creativecommons.org/ns#"
   xmlns:rdf="http://www.w3.org/1999/02/22-rdf-syntax-ns#"
   xmlns:svg="http://www.w3.org/2000/svg"
   xmlns="http://www.w3.org/2000/svg"
   xmlns:sodipodi="http://sodipodi.sourceforge.net/DTD/sodipodi-0.dtd"
   xmlns:inkscape="http://www.inkscape.org/namespaces/inkscape"
   width="210mm"
   height="210mm"
   viewBox="0 0 210 210"
   version="1.1"
   id="svg188"
   inkscape:version="0.92.3 (2405546, 2018-03-11)"
   sodipodi:docname="make.svg">
  <defs
     id="defs182">
    <linearGradient
       id="SVGID_1_"
       gradientUnits="userSpaceOnUse"
       x1="256"
       x2="256"
       y1="436"
       y2="76">
      <stop
         offset="0"
         stop-color="#5558ff"
         id="stop2" />
      <stop
         offset="1"
         stop-color="#00c0ff"
         id="stop4" />
    </linearGradient>
    <linearGradient
       id="SVGID_2_"
       gradientUnits="userSpaceOnUse"
       x1="256"
       x2="256"
       y1="376"
       y2="136">
      <stop
         offset="0"
         stop-color="#addcff"
         id="stop7" />
      <stop
         offset=".5028"
         stop-color="#eaf6ff"
         id="stop9" />
      <stop
         offset="1"
         stop-color="#eaf6ff"
         id="stop11" />
    </linearGradient>
  </defs>
  <sodipodi:namedview
     id="base"
     pagecolor="#ffffff"
     bordercolor="#666666"
     borderopacity="1.0"
     inkscape:pageopacity="0.0"
     inkscape:pageshadow="2"
     inkscape:zoom="0.35"
     inkscape:cx="119.62208"
     inkscape:cy="525.28"
     inkscape:document-units="mm"
     inkscape:current-layer="layer1"
     showgrid="false"
     inkscape:window-width="1366"
     inkscape:window-height="713"
     inkscape:window-x="0"
     inkscape:window-y="0"
     inkscape:window-maximized="1" />
  <metadata
     id="metadata185">
    <rdf:RDF>
      <cc:Work
         rdf:about="">
        <dc:format>image/svg+xml</dc:format>
        <dc:type
           rdf:resource="http://purl.org/dc/dcmitype/StillImage" />
        <dc:title></dc:title>
      </cc:Work>
    </rdf:RDF>
  </metadata>
  <g
     inkscape:label="Camada 1"
     inkscape:groupmode="layer"
     id="layer1"
     transform="translate(0,-87)">
    <g
       id="g5532"
       transform="matrix(1.0378697,0,0,1.0378697,-8.4383015,8.9684805)">
      <path
         id="path125"
         d="m 58.381526,199.36156 c -4.308097,3.16767 -12.541732,8.48578 -18.130808,11.71141 -5.58908,3.22421 -8.535045,4.35449 -11.202788,6.3426 -2.667743,1.98812 -5.057266,4.83702 -6.8831,6.66139 -1.824383,1.82438 -3.085077,2.62718 -4.448656,2.9677 -1.363576,0.34054 -2.83004,0.2218 -4.196515,-0.36805 -1.366477,-0.58978 -2.632967,-1.64761 -3.340115,-3.25752 -0.7071488,-1.60993 -0.8549529,-3.77049 -0.5158716,-5.49198 0.3390846,-1.72149 1.1636076,-3.00249 2.2562086,-4.0864 1.091152,-1.08244 2.450384,-1.96639 4.389244,-2.49819 1.93886,-0.53182 4.460247,-0.71149 6.077414,0.0347 1.617166,0.74772 2.330111,2.42282 2.711215,3.25894 0.381106,0.83757 0.430375,0.83757 0.520219,0.82163 0.08985,-0.0148 0.22026,-0.0493 2.683685,-1.47371 2.463425,-1.42444 7.258406,-4.23854 12.746049,-7.36853 5.487641,-3.12999 11.665042,-6.57588 15.51523,-8.70312 3.850187,-2.12725 5.373166,-2.93729 6.133928,-3.34301 0.760764,-0.4043 0.760764,-0.4043 0.568038,0.10273 -0.192735,0.50715 -0.576732,1.52297 -4.886277,4.68919 z m -42.620151,15.54133 c -1.162159,0.60569 -2.044642,1.41573 -2.634416,2.27938 -0.589773,0.86364 -0.883936,1.7809 -0.834666,2.7547 0.04926,0.97378 0.441966,2.0055 1.104192,2.61848 0.663679,0.61441 1.595432,0.81002 2.798163,0.76945 1.202731,-0.0403 2.67644,-0.3188 3.919743,-0.98246 1.244754,-0.66224 2.259106,-1.70992 2.806856,-2.76629 0.54775,-1.05492 0.630348,-2.12 0.507174,-2.9706 -0.123164,-0.8506 -0.45066,-1.48965 -1.088254,-1.97219 -0.63759,-0.48253 -1.588183,-0.81005 -2.782219,-0.77382 -1.195486,0.0362 -2.635865,0.43764 -3.798022,1.04335 z"
         class="fil2"
         style="clip-rule:evenodd;fill:#cccccc;fill-opacity:1;fill-rule:evenodd;stroke-width:0.14490734;image-rendering:optimizeQuality;shape-rendering:geometricPrecision;text-rendering:geometricPrecision"
         inkscape:connector-curvature="0" />
      <path
         id="path127"
         d="m 40.405767,188.31527 c -0.359371,6.93817 -0.965083,20.57104 -1.26794,27.3875 -0.302855,6.81646 -0.302855,6.81646 -0.302855,6.81646 0,0 0,0 1.017249,0.3782 1.018699,0.37819 3.054647,1.13319 4.367509,2.33009 1.31286,1.19695 1.902634,2.83295 2.054786,4.57476 0.152144,1.74176 -0.133321,3.58787 -0.665125,5.38764 -0.531811,1.80119 -1.309963,3.55456 -2.496755,4.72544 -1.18679,1.17083 -2.780772,1.75626 -4.761655,1.52729 -1.980884,-0.22892 -4.347223,-1.27372 -5.664429,-2.84452 -1.317205,-1.5708 -1.585286,-3.66906 -1.540363,-5.73398 0.04638,-2.06349 0.405741,-4.09364 1.125931,-5.81949 0.720189,-1.72728 1.801193,-3.15027 2.398215,-3.97769 0.597015,-0.826 0.711492,-1.05492 0.875239,-6.81646 0.163754,-5.76151 0.375309,-17.05412 0.637593,-23.28659 0.262275,-6.23249 0.572382,-7.40187 1.362128,-8.55244 0.789747,-1.14913 2.057686,-2.27938 2.712667,-2.86192 0.654982,-0.58254 0.695554,-0.62019 0.659329,-0.51731 -0.03623,0.10274 -0.15072,0.34343 -0.511524,7.28159 z m -4.054509,39.65681 c -0.899876,0.7115 -1.40705,1.71136 -1.611368,2.96335 -0.204315,1.25199 -0.105795,2.75759 0.15651,3.91976 0.262276,1.16214 0.688308,1.98086 1.465012,2.49529 0.776704,0.51587 1.905532,0.72743 3.009726,0.57963 1.104192,-0.14788 2.185202,-0.65354 2.912639,-1.64035 0.727435,-0.98683 1.099846,-2.45327 1.133173,-3.8444 0.03332,-1.39109 -0.275311,-2.70686 -0.927406,-3.70091 -0.653532,-0.99409 -1.651945,-1.66499 -2.798162,-1.78816 -1.146217,-0.12323 -2.440238,0.30284 -3.340113,1.01433 z"
         class="fil2"
         style="clip-rule:evenodd;fill:#cccccc;fill-opacity:1;fill-rule:evenodd;stroke-width:0.14490734;image-rendering:optimizeQuality;shape-rendering:geometricPrecision;text-rendering:geometricPrecision"
         inkscape:connector-curvature="0" />
      <path
         id="path129"
         d="m 75.910304,108.87775 c -10.404987,8.2817 -31.084425,24.78063 -41.423318,33.02928 -10.33889,8.24862 -10.33889,8.24862 -10.33889,8.24862 0,0 0,0 4.142495,4.03179 4.142497,4.0318 12.429143,12.09372 16.573291,16.12551 4.142499,4.03179 4.142499,4.03179 4.142499,4.03179 0,0 0,0 3.919426,-2.6504 3.919425,-2.6504 11.758281,-7.94958 15.677707,-10.59998 3.919426,-2.65041 3.919426,-2.65041 3.919426,-2.65041 0,0 0,0 0.03799,13.28838 0.03799,13.28838 0.112342,39.86513 0.261082,53.37823 0.148706,13.51147 0.373438,13.9609 0.784879,14.63177 0.409788,0.6725 1.007948,1.56809 1.754817,2.31497 0.746872,0.74688 1.642458,1.34337 12.914942,1.79118 11.272488,0.44778 32.92186,0.74685 43.93327,0.70886 11.01141,-0.0379 11.38485,-0.40979 12.16807,-1.04596 0.78322,-0.6345 1.97789,-1.53009 2.83713,-2.27697 0.85757,-0.74685 1.38138,-1.34337 1.60445,-15.15388 0.22306,-13.81054 0.14871,-40.8351 0.11234,-54.3482 -0.038,-13.51143 -0.038,-13.51143 -0.038,-13.51143 0,0 0,0 4.1425,2.91148 4.14249,2.91148 12.42915,8.73442 16.57329,11.64591 4.1425,2.91148 4.1425,2.91148 4.1425,2.91148 0,0 0,0 4.03179,-4.21849 4.03179,-4.21852 12.09371,-12.65387 16.1255,-16.87239 4.03179,-4.21849 4.03179,-4.21849 4.03179,-4.21849 0,0 0,0 -10.19019,-8.21232 -10.19019,-8.21229 -30.57055,-24.63521 -40.76073,-32.8475 -10.19017,-8.21226 -10.19017,-8.21226 -10.19017,-8.21226 0,0 0,0 -0.26108,1.90356 -0.26109,1.90348 -0.78488,5.71056 -3.73271,9.53744 -2.94949,3.82525 -8.32301,7.67032 -13.4751,9.4813 -5.15044,1.81102 -10.07782,1.5863 -14.66976,-0.0169 -4.59195,-1.60445 -8.846795,-4.59028 -11.832637,-7.94955 -2.985834,-3.35926 -4.704301,-7.09198 -5.533791,-9.42018 -0.831143,-2.32814 -0.774965,-3.25183 -0.811316,-3.68143 -0.03799,-0.42963 -0.168547,-0.36354 -10.571875,7.91813 z"
         class="fil2"
         style="clip-rule:evenodd;fill:#cccccc;fill-opacity:1;fill-rule:evenodd;stroke-width:0.1652372;image-rendering:optimizeQuality;shape-rendering:geometricPrecision;text-rendering:geometricPrecision"
         inkscape:connector-curvature="0" />
      <path
         id="path131"
         d="m 171.95774,240.50736 c -0.84436,-11.14192 -2.37446,-33.20111 -2.8239,-44.90319 -0.4478,-11.70211 0.18672,-13.04548 0.87741,-13.92288 0.69069,-0.87741 1.43756,-1.2872 2.12824,-1.49377 0.6907,-0.20484 1.32521,-0.20484 1.88537,0.18656 0.56015,0.39161 1.04595,1.17648 1.30702,2.22077 0.26108,1.04596 0.29907,2.35134 -0.1074,13.87664 -0.40648,11.5253 -1.25415,33.26721 -1.67881,44.24062 -0.42466,10.97341 -0.42466,11.17994 -0.50397,11.17002 -0.0793,-0.0102 -0.23796,-0.23294 -1.08231,-11.37494 z"
         class="fil2"
         style="clip-rule:evenodd;fill:#cccccc;fill-opacity:1;fill-rule:evenodd;stroke-width:0.1652372;image-rendering:optimizeQuality;shape-rendering:geometricPrecision;text-rendering:geometricPrecision"
         inkscape:connector-curvature="0" />
      <g
         id="g135"
         style="clip-rule:evenodd;opacity:1;fill:none;fill-opacity:1;fill-rule:evenodd;stroke:#cccccc;stroke-width:5.23489857;stroke-miterlimit:4;stroke-dasharray:none;stroke-opacity:1;image-rendering:optimizeQuality;shape-rendering:geometricPrecision;text-rendering:geometricPrecision"
         transform="matrix(0.16523721,0,0,0.16523721,-1341.1045,-107.62263)">
        <path
           style="fill:none;fill-opacity:1;stroke:#cccccc;stroke-width:5.23489857;stroke-miterlimit:4;stroke-dasharray:none;stroke-opacity:1"
           id="path133"
           d="m 9110.9,1770.54 c 19.99,6.66 39.98,13.33 56.42,23.83 16.44,10.51 29.31,24.85 41.74,49.81 12.43,24.96 24.4,60.54 36.82,81.83 12.43,21.29 25.3,28.29 37.5,32.87 12.2,4.58 23.72,6.72 39.87,4.58 16.15,-2.15 36.94,-8.58 57.72,-15.02"
           class="fil3 str0"
           inkscape:connector-curvature="0" />
      </g>
    </g>
  </g>
</svg>
