<?xml version="1.0" encoding="UTF-8" standalone="no"?>
<!-- Created with Inkscape (http://www.inkscape.org/) -->

<svg
   xmlns:dc="http://purl.org/dc/elements/1.1/"
   xmlns:cc="http://creativecommons.org/ns#"
   xmlns:rdf="http://www.w3.org/1999/02/22-rdf-syntax-ns#"
   xmlns:svg="http://www.w3.org/2000/svg"
   xmlns="http://www.w3.org/2000/svg"
   xmlns:sodipodi="http://sodipodi.sourceforge.net/DTD/sodipodi-0.dtd"
   xmlns:inkscape="http://www.inkscape.org/namespaces/inkscape"
   width="210mm"
   height="210mm"
   viewBox="0 0 210 210"
   version="1.1"
   id="svg188"
   inkscape:version="0.92.3 (2405546, 2018-03-11)"
   sodipodi:docname="tshirt.svg">
  <defs
     id="defs182" />
  <sodipodi:namedview
     id="base"
     pagecolor="#ffffff"
     bordercolor="#666666"
     borderopacity="1.0"
     inkscape:pageopacity="0.0"
     inkscape:pageshadow="2"
     inkscape:zoom="0.35"
     inkscape:cx="400"
     inkscape:cy="560"
     inkscape:document-units="mm"
     inkscape:current-layer="layer1"
     showgrid="false"
     inkscape:window-width="1366"
     inkscape:window-height="713"
     inkscape:window-x="0"
     inkscape:window-y="0"
     inkscape:window-maximized="1" />
  <metadata
     id="metadata185">
    <rdf:RDF>
      <cc:Work
         rdf:about="">
        <dc:format>image/svg+xml</dc:format>
        <dc:type
           rdf:resource="http://purl.org/dc/dcmitype/StillImage" />
        <dc:title></dc:title>
      </cc:Work>
    </rdf:RDF>
  </metadata>
  <g
     inkscape:label="Camada 1"
     inkscape:groupmode="layer"
     id="layer1"
     transform="translate(0,-87)">
    <g
       id="g210"
       transform="translate(0.30061625,4.4681595)"
       style="fill:#cccccc;fill-opacity:1">
      <path
         id="path108"
         d="m 44.323101,135.85991 c -8.425848,6.70593 -25.168564,20.06411 -33.540714,26.74476 -8.3721495,6.67907 -8.3721495,6.67907 -8.3721495,6.67907 0,0 0,0 3.3545446,3.26454 3.3545477,3.26453 10.0652159,9.79198 13.4197609,13.05652 3.354544,3.2645 3.354544,3.2645 3.354544,3.2645 0,0 0,0 3.172922,-2.14632 3.172922,-2.14636 9.520337,-6.43746 12.694838,-8.58378 3.172918,-2.14636 3.172918,-2.14636 3.172918,-2.14636 0,0 0,0 0.0301,10.76014 0.0301,10.76013 0.09003,32.27882 0.211649,43.22057 0.121617,10.94175 0.301648,11.30343 0.6349,11.84832 0.331664,0.54485 0.816524,1.26976 1.419836,1.87309 0.604892,0.60488 1.329818,1.08818 10.456896,1.45144 9.127078,0.36323 26.657894,0.60488 35.573334,0.57488 8.915449,-0.0291 9.218682,-0.33168 9.853578,-0.84653 0.634902,-0.51329 1.601472,-1.23824 2.296382,-1.84312 0.69491,-0.60488 1.11817,-1.08818 1.2998,-12.27158 0.18162,-11.1834 0.12162,-33.06532 0.0916,-44.00549 -0.0301,-10.94175 -0.0301,-10.94175 -0.0301,-10.94175 0,0 0,0 3.35454,2.35798 3.35454,2.35797 10.06522,7.07233 13.41976,9.4303 3.35455,2.35798 3.35455,2.35798 3.35455,2.35798 0,0 0,0 3.26452,-3.41615 3.26452,-3.41457 9.79198,-10.24526 13.05651,-13.66141 3.26452,-3.41457 3.26452,-3.41457 3.26452,-3.41457 0,0 0,0 -8.25054,-6.64907 -8.25212,-6.64907 -24.75319,-19.94721 -33.00373,-26.59628 -8.252114,-6.64909 -8.252114,-6.64909 -8.252114,-6.64909 0,0 0,0 -0.211616,1.54147 -0.211617,1.54144 -0.634898,4.62433 -3.022884,7.723 -2.387973,3.09872 -6.739092,6.2116 -10.91016,7.67725 -4.171072,1.46566 -8.160517,1.28401 -11.878314,-0.0162 -3.717833,-1.29979 -7.162403,-3.7178 -9.580392,-6.43745 -2.417989,-2.71962 -3.809398,-5.74251 -4.480622,-7.62825 -0.672804,-1.88575 -0.627005,-2.63279 -0.657011,-2.98023 -0.0301,-0.34747 -0.135824,-0.29385 -8.560093,6.41059 z"
         class="fil1"
         style="clip-rule:evenodd;fill-rule:evenodd;stroke-width:0.15793526;image-rendering:optimizeQuality;shape-rendering:geometricPrecision;text-rendering:geometricPrecision;fill:#cccccc;fill-opacity:1"
         inkscape:connector-curvature="0" />
      <path
         id="path110"
         d="m 108.17949,135.85991 c -8.425852,6.70593 -25.168563,20.06411 -33.540713,26.74476 -8.372149,6.67907 -8.372149,6.67907 -8.372149,6.67907 0,0 0,0 3.354544,3.26454 3.354548,3.26453 10.065216,9.79198 13.419761,13.05652 3.354544,3.2645 3.354544,3.2645 3.354544,3.2645 0,0 0,0 3.172922,-2.14632 3.172918,-2.14636 9.520337,-6.43746 12.694831,-8.58378 3.17292,-2.14636 3.17292,-2.14636 3.17292,-2.14636 0,0 0,0 0.0301,10.76014 0.0301,10.76013 0.09,32.27882 0.21165,43.22057 0.12161,10.94175 0.30164,11.30343 0.6349,11.84832 0.33166,0.54485 0.81652,1.26976 1.41983,1.87309 0.6049,0.60488 1.32982,1.08818 10.45689,1.45144 9.12709,0.36323 26.65791,0.60488 35.57334,0.57488 8.91545,-0.0291 9.21869,-0.33168 9.85359,-0.84653 0.6349,-0.51329 1.60146,-1.23824 2.29637,-1.84312 0.69492,-0.60488 1.11819,-1.08818 1.29981,-12.27158 0.18162,-11.1834 0.12162,-33.06532 0.0916,-44.00549 -0.0301,-10.94175 -0.0301,-10.94175 -0.0301,-10.94175 0,0 0,0 3.35454,2.35798 3.35454,2.35797 10.06522,7.07233 13.41977,9.4303 3.35453,2.35798 3.35453,2.35798 3.35453,2.35798 0,0 0,0 3.26453,-3.41615 3.26452,-3.41457 9.79199,-10.24526 13.05651,-13.66141 3.26452,-3.41457 3.26452,-3.41457 3.26452,-3.41457 0,0 0,0 -8.25053,-6.64907 -8.25224,-6.64907 -24.75331,-19.94721 -33.00385,-26.59628 -8.25212,-6.64909 -8.25212,-6.64909 -8.25212,-6.64909 0,0 0,0 -0.21162,1.54147 -0.21165,1.54144 -0.6349,4.62433 -3.02288,7.723 -2.38798,3.09872 -6.7391,6.2116 -10.91017,7.67725 -4.17107,1.46566 -8.16051,1.28401 -11.87831,-0.0162 -3.7178,-1.29979 -7.16237,-3.7178 -9.58036,-6.43745 -2.41799,-2.71962 -3.80939,-5.74251 -4.48062,-7.62825 -0.6728,-1.88575 -0.627,-2.63279 -0.65701,-2.98023 -0.0301,-0.34747 -0.13583,-0.29385 -8.56009,6.41059 z"
         class="fil1"
         style="clip-rule:evenodd;fill-rule:evenodd;stroke-width:0.15793526;image-rendering:optimizeQuality;shape-rendering:geometricPrecision;text-rendering:geometricPrecision;fill:#cccccc;fill-opacity:1"
         inkscape:connector-curvature="0" />
    </g>
  </g>
</svg>
