<?xml version="1.0" encoding="UTF-8"?>
<!DOCTYPE svg PUBLIC "-//W3C//DTD SVG 1.1//EN" "http://www.w3.org/Graphics/SVG/1.1/DTD/svg11.dtd">
<!-- Creator: CorelDRAW 2020 (64 Bit) -->
<svg xmlns="http://www.w3.org/2000/svg" xml:space="preserve" width="33.6913mm" height="33.6913mm" version="1.1" style="shape-rendering:geometricPrecision; text-rendering:geometricPrecision; image-rendering:optimizeQuality; fill-rule:evenodd; clip-rule:evenodd"
viewBox="0 0 317.98 317.98"
 xmlns:xlink="http://www.w3.org/1999/xlink"
 xmlns:xodm="http://www.corel.com/coreldraw/odm/2003">
 <defs>
  <style type="text/css">
   <![CDATA[
    .fil0 {fill:#333333}
   ]]>
  </style>
 </defs>
 <g id="Camada_x0020_1">
  <metadata id="CorelCorpID_0Corel-Layer"/>
  <path class="fil0" d="M158.99 0c87.81,0 158.99,71.18 158.99,158.99 0,87.81 -71.18,158.99 -158.99,158.99 -87.81,0 -158.99,-71.18 -158.99,-158.99 0,-87.81 71.18,-158.99 158.99,-158.99zm-98.87 218.47l0 39.39 38.54 0c6.61,-3.84 6.21,-5.7 6.15,-14.94l108.23 0c-0.17,10.88 -0.68,9.91 5.77,14.94l39.05 0 0 -39.05c-3.86,-4.95 -3.62,-5.88 -12.28,-5.84 -39.05,0.18 -30.09,-1.93 -32.87,18.21l-107.58 0.02c-2.41,-15.6 3.47,-18.27 -16,-18.21 -17.44,0.06 -23.55,-2.46 -29,5.47zm161.81 30.3l26.77 0.02 0.24 -26.83 -27.08 -0.13 0.07 26.94zm-152.88 -0.03l3.38 0.07 0.88 -0.01 19.33 0 3.18 -0.04 0.29 -4.08 -0.05 -19.34 0.02 -3.44 -27.07 -0.06 0.04 26.9zm144.23 -188.62l-108.59 0c-5.23,4.14 -5.5,3.64 -5.48,12.29 0.08,32.77 -3.66,29.77 26.42,29.42 1.02,8.69 -8.38,29.49 -11.78,35.77 -2.69,4.97 -7.87,9.85 -7.44,16.57 0.33,5.15 6.04,10.26 9.94,14.97l31.45 41.48c2.46,3.56 7.32,11.08 10.53,13.66 4.6,-1.21 6.5,-6.61 10.9,-12.87l31.46 -42.33c14.25,-17.61 13.25,-13.43 3.68,-30.89 -3.49,-6.37 -13.16,-27.59 -12.02,-36.35 19.19,0.23 26.11,2.61 26.3,-10.03 0.09,-6.13 -0.06,-12.36 -0.02,-18.51 0.06,-8.98 0.2,-8.65 -5.36,-13.18zm-57.81 72.06c-6.76,2.9 -8.94,8.13 -6.5,13.95 1.81,4.33 7.49,8.54 13.76,6.1 13.74,-5.36 5.56,-25.55 -7.26,-20.04zm-47.57 -39.14l101.56 0.21 0.34 -24.19 -101.8 0.03 -0.09 23.96zm44.89 102.8l0.25 -34.72c-25.32,-13.3 -12.06,-38.45 5.51,-38.76 23.88,-0.41 26.76,32.88 6.16,38.42l0.04 35.26 16.23 -20.38c22.8,-27.74 23.56,-16.06 9,-45.02 -3.55,-7.07 -8.15,-19.46 -9.31,-28.49l-43.21 0.02c-1.33,3.16 -5.16,17.29 -9.35,27.68 -1.78,4.41 -3.67,8.44 -6.08,12.4 -2.2,3.6 -6.25,8.77 -3.06,13.69l25.7 29.68c2.28,2.98 6.65,7.79 8.12,10.21z"/>
 </g>
</svg>
