<?xml version="1.0" encoding="UTF-8"?>
<!DOCTYPE svg PUBLIC "-//W3C//DTD SVG 1.1//EN" "http://www.w3.org/Graphics/SVG/1.1/DTD/svg11.dtd">
<!-- Creator: CorelDRAW 2020 (64 Bit) -->
<svg xmlns="http://www.w3.org/2000/svg" xml:space="preserve" width="49.7124mm" height="33.6913mm" version="1.1" style="shape-rendering:geometricPrecision; text-rendering:geometricPrecision; image-rendering:optimizeQuality; fill-rule:evenodd; clip-rule:evenodd"
viewBox="0 0 884.68 599.57"
 xmlns:xlink="http://www.w3.org/1999/xlink"
 xmlns:xodm="http://www.corel.com/coreldraw/odm/2003">
 <defs>
  <style type="text/css">
   <![CDATA[
    .fil0 {fill:#333333}
   ]]>
  </style>
 </defs>
 <g id="Camada_x0020_1">
  <metadata id="CorelCorpID_0Corel-Layer"/>
  <g id="_2584703578000">
   <path class="fil0" d="M332.59 88.43c-32.02,4.62 -145.17,-7.64 -162.03,6.1l-61.51 66.36c-7.45,8.12 -14.8,12.8 -22.37,21.12 -13.94,15.31 -24.72,30.98 -40.03,44.12 -25.86,22.2 -20.44,21.14 -21.22,63.75 -1.02,55.2 -3.89,112.57 -3.29,167.76l-22.13 2.12 4.02 62.65 116.75 -0.24c7.7,-144.56 194.56,-145.99 203.87,-1.2l247.91 1.3c1.36,-38.1 6.54,-59.32 26.78,-79.97 60.52,-61.74 172.71,-38.88 176.58,79.07l71.18 0.94 1.01 -154.61c35.89,-32.33 35.35,-27.31 35.32,-93.46 -0.02,-43.61 0,-87.23 0,-130.85 0,-37.43 7.27,-91.26 -12.92,-118.32 -23.01,-30.85 -59.61,-24.22 -105.95,-24.22 -35.37,0 -368.29,-2.9 -386.8,1.99 -41.41,10.94 -40.93,40.14 -45.14,85.59zm-98.37 213.22l57.95 -0.54 0.33 -21.74 -56.89 -0.82 -1.39 23.1zm98.93 89.02l499.15 1.08 0.9 -20.33 -499.84 -0.05 -0.21 19.3zm-246.12 -152.41l223.85 8.97 -0.11 -113.11c-16.57,-0.25 -111.1,-6.45 -121.5,-2.46 -8.44,3.25 -100.37,101.46 -102.24,106.59z"/>
   <path class="fil0" d="M201.62 435.55c-110.59,31.92 -59.68,189.81 43.52,160.38 106.43,-30.35 60.07,-190.28 -43.52,-160.38zm5.31 46.45c-49.57,19.35 -17.53,87.36 32.18,67.37 45.58,-18.34 19.31,-87.47 -32.18,-67.37z"/>
   <path class="fil0" d="M659.9 429.42c-41.89,8.46 -78.11,45.34 -67.5,98.05 21.42,106.43 184.96,76.81 163.69,-32.91 -7.62,-39.32 -47.09,-75.05 -96.19,-65.14zm2.38 46.79c-52.23,19.71 -18.83,86.29 29.58,68.23 46.87,-17.48 19.82,-86.88 -29.58,-68.23z"/>
  </g>
 </g>
</svg>
