<?xml version="1.0" encoding="UTF-8"?>
<!DOCTYPE svg PUBLIC "-//W3C//DTD SVG 1.1//EN" "http://www.w3.org/Graphics/SVG/1.1/DTD/svg11.dtd">
<!-- Creator: CorelDRAW 2020 (64 Bit) -->
<svg xmlns="http://www.w3.org/2000/svg" xml:space="preserve" width="33.6359mm" height="33.6911mm" version="1.1" style="shape-rendering:geometricPrecision; text-rendering:geometricPrecision; image-rendering:optimizeQuality; fill-rule:evenodd; clip-rule:evenodd"
viewBox="0 0 2720.62 2725.08"
 xmlns:xlink="http://www.w3.org/1999/xlink"
 xmlns:xodm="http://www.corel.com/coreldraw/odm/2003">
 <defs>
  <style type="text/css">
   <![CDATA[
    .fil0 {fill:#333333}
   ]]>
  </style>
 </defs>
 <g id="Camada_x0020_1">
  <metadata id="CorelCorpID_0Corel-Layer"/>
  <path class="fil0" d="M1465.11 2050.62c335.42,20.76 476.3,-350.95 242.81,-486.21 -48.67,-28.2 -176.47,-77.44 -243.31,-78.91l0.49 565.12zm-299.8 -2031.61c-1250.47,217.76 -1530.94,1695.98 -664.12,2401.19 255.24,207.67 634.99,353.63 1060.24,289.71 683.8,-102.78 1247.75,-722.14 1147.61,-1534.38 -82.38,-668.21 -757.59,-1293.44 -1543.73,-1156.52zm89.92 474.27c-625.02,95.09 -609.51,610.87 -353.59,794.62 117.89,84.63 213.07,92.57 353.8,143.83l0.83 609.03c-204.97,-9.8 -338.27,-160.29 -360.78,-356.09l-216.7 0.5c5.97,177.85 73.98,304.27 171.89,398.69 132.39,127.65 204.64,119.17 405.08,175.57l3.36 128.02 198.75 0.06 9.45 -122.94c289.19,-52.7 570.28,-154.93 574.95,-507.71 5.79,-438.83 -474.76,-456.74 -574.97,-514.58l-2.6 -536.7c88.21,1.21 169.44,44.6 216.54,87.41 73.11,66.43 70.24,89.69 101.1,209.25l213.35 3.68c19.92,-150.22 -78.27,-291.38 -156.41,-357.57 -126.58,-107.21 -189.77,-104.39 -372.51,-155.23l-2.56 -150.12 -206.59 -0.23 -2.35 150.53zm-0.07 694.56l0.92 -482.07c-148.09,-3.34 -292.48,98.74 -297.57,238.79 -5.52,152.55 148.16,243.99 296.64,243.28z"/>
 </g>
</svg>
